<svg xmlns="http://www.w3.org/2000/svg" width="820" height="404" viewBox="0 0 820 404" font-family="-apple-system, BlinkMacSystemFont, 'Segoe UI', Helvetica, Arial, sans-serif">
<rect width="820" height="404" rx="8" fill="#ffffff"/>
<text x="24" y="34" font-size="15" font-weight="600" fill="#1f2328">x-mesh &#183; activity per month</text>
<text x="24" y="54" font-size="11" fill="#59636e">all 23 repositories, 6 of them private &#183; measured 2026-10-05 UTC &#183; current month to date</text>
<text x="24" y="78" font-size="12" font-weight="600" fill="#0969da">commits on default branches</text>
<line x1="24" y1="212" x2="796" y2="212" stroke="#d1d9e0"/>
<path d="M62.6,199.5 L139.8,176.2 L217.0,165.1 L294.2,152.7 L371.4,167.8 L448.6,161.6 L525.8,114.0 L603.0,128.6 L680.2,127.4 L757.4,193.8 L757.4,212 L62.6,212 Z" fill="#0969da" fill-opacity="0.12"/>
<polyline points="62.6,199.5 139.8,176.2 217.0,165.1 294.2,152.7 371.4,167.8 448.6,161.6 525.8,114.0 603.0,128.6 680.2,127.4" fill="none" stroke="#0969da" stroke-width="2" stroke-linejoin="round"/>
<polyline points="680.2,127.4 757.4,193.8" fill="none" stroke="#0969da" stroke-width="2" stroke-dasharray="4 3"/>
<circle cx="62.6" cy="199.5" r="3" fill="#0969da" stroke="#0969da" stroke-width="1.5"/>
<text x="62.6" y="191.5" font-size="10" text-anchor="middle" fill="#59636e">223</text>
<circle cx="139.8" cy="176.2" r="3" fill="#0969da" stroke="#0969da" stroke-width="1.5"/>
<text x="139.8" y="168.2" font-size="10" text-anchor="middle" fill="#59636e">637</text>
<circle cx="217.0" cy="165.1" r="3" fill="#0969da" stroke="#0969da" stroke-width="1.5"/>
<text x="217.0" y="157.1" font-size="10" text-anchor="middle" fill="#59636e">836</text>
<circle cx="294.2" cy="152.7" r="3" fill="#0969da" stroke="#0969da" stroke-width="1.5"/>
<text x="294.2" y="144.7" font-size="10" text-anchor="middle" fill="#59636e">1,057</text>
<circle cx="371.4" cy="167.8" r="3" fill="#0969da" stroke="#0969da" stroke-width="1.5"/>
<text x="371.4" y="159.8" font-size="10" text-anchor="middle" fill="#59636e">787</text>
<circle cx="448.6" cy="161.6" r="3" fill="#0969da" stroke="#0969da" stroke-width="1.5"/>
<text x="448.6" y="153.6" font-size="10" text-anchor="middle" fill="#59636e">898</text>
<circle cx="525.8" cy="114.0" r="3" fill="#0969da" stroke="#0969da" stroke-width="1.5"/>
<text x="525.8" y="106.0" font-size="10" text-anchor="middle" fill="#59636e">1,746</text>
<circle cx="603.0" cy="128.6" r="3" fill="#0969da" stroke="#0969da" stroke-width="1.5"/>
<text x="603.0" y="120.6" font-size="10" text-anchor="middle" fill="#59636e">1,486</text>
<circle cx="680.2" cy="127.4" r="3" fill="#0969da" stroke="#0969da" stroke-width="1.5"/>
<text x="680.2" y="119.4" font-size="10" text-anchor="middle" fill="#59636e">1,508</text>
<circle cx="757.4" cy="193.8" r="3" fill="#ffffff" stroke="#0969da" stroke-width="1.5"/>
<text x="757.4" y="185.8" font-size="10" text-anchor="middle" fill="#59636e">325</text>
<text x="24" y="248" font-size="12" font-weight="600" fill="#8250df">merged pull requests</text>
<line x1="24" y1="342" x2="796" y2="342" stroke="#d1d9e0"/>
<path d="M62.6,342.0 L139.8,342.0 L217.0,342.0 L294.2,340.3 L371.4,332.6 L448.6,339.3 L525.8,331.2 L603.0,297.8 L680.2,284.0 L757.4,318.6 L757.4,342 L62.6,342 Z" fill="#8250df" fill-opacity="0.12"/>
<polyline points="62.6,342.0 139.8,342.0 217.0,342.0 294.2,340.3 371.4,332.6 448.6,339.3 525.8,331.2 603.0,297.8 680.2,284.0" fill="none" stroke="#8250df" stroke-width="2" stroke-linejoin="round"/>
<polyline points="680.2,284.0 757.4,318.6" fill="none" stroke="#8250df" stroke-width="2" stroke-dasharray="4 3"/>
<circle cx="62.6" cy="342.0" r="3" fill="#8250df" stroke="#8250df" stroke-width="1.5"/>
<text x="62.6" y="334.0" font-size="10" text-anchor="middle" fill="#59636e">0</text>
<circle cx="139.8" cy="342.0" r="3" fill="#8250df" stroke="#8250df" stroke-width="1.5"/>
<text x="139.8" y="334.0" font-size="10" text-anchor="middle" fill="#59636e">0</text>
<circle cx="217.0" cy="342.0" r="3" fill="#8250df" stroke="#8250df" stroke-width="1.5"/>
<text x="217.0" y="334.0" font-size="10" text-anchor="middle" fill="#59636e">0</text>
<circle cx="294.2" cy="340.3" r="3" fill="#8250df" stroke="#8250df" stroke-width="1.5"/>
<text x="294.2" y="332.3" font-size="10" text-anchor="middle" fill="#59636e">11</text>
<circle cx="371.4" cy="332.6" r="3" fill="#8250df" stroke="#8250df" stroke-width="1.5"/>
<text x="371.4" y="324.6" font-size="10" text-anchor="middle" fill="#59636e">60</text>
<circle cx="448.6" cy="339.3" r="3" fill="#8250df" stroke="#8250df" stroke-width="1.5"/>
<text x="448.6" y="331.3" font-size="10" text-anchor="middle" fill="#59636e">17</text>
<circle cx="525.8" cy="331.2" r="3" fill="#8250df" stroke="#8250df" stroke-width="1.5"/>
<text x="525.8" y="323.2" font-size="10" text-anchor="middle" fill="#59636e">69</text>
<circle cx="603.0" cy="297.8" r="3" fill="#8250df" stroke="#8250df" stroke-width="1.5"/>
<text x="603.0" y="289.8" font-size="10" text-anchor="middle" fill="#59636e">281</text>
<circle cx="680.2" cy="284.0" r="3" fill="#8250df" stroke="#8250df" stroke-width="1.5"/>
<text x="680.2" y="276.0" font-size="10" text-anchor="middle" fill="#59636e">369</text>
<circle cx="757.4" cy="318.6" r="3" fill="#ffffff" stroke="#8250df" stroke-width="1.5"/>
<text x="757.4" y="310.6" font-size="10" text-anchor="middle" fill="#59636e">149</text>
<text x="62.6" y="366" font-size="11" text-anchor="middle" fill="#59636e">Jan</text>
<text x="62.6" y="382" font-size="10" text-anchor="middle" fill="#59636e">2026</text>
<text x="139.8" y="366" font-size="11" text-anchor="middle" fill="#59636e">Feb</text>
<text x="217.0" y="366" font-size="11" text-anchor="middle" fill="#59636e">Mar</text>
<text x="294.2" y="366" font-size="11" text-anchor="middle" fill="#59636e">Apr</text>
<text x="371.4" y="366" font-size="11" text-anchor="middle" fill="#59636e">May</text>
<text x="448.6" y="366" font-size="11" text-anchor="middle" fill="#59636e">Jun</text>
<text x="525.8" y="366" font-size="11" text-anchor="middle" fill="#59636e">Jul</text>
<text x="603.0" y="366" font-size="11" text-anchor="middle" fill="#59636e">Aug</text>
<text x="680.2" y="366" font-size="11" text-anchor="middle" fill="#59636e">Sep</text>
<text x="757.4" y="366" font-size="11" text-anchor="middle" fill="#59636e">Oct</text>
</svg>
